<?xml version="1.0" encoding="UTF-8" standalone="no"?>
<!DOCTYPE svg PUBLIC "-//W3C//DTD SVG 1.1//EN"
 "http://www.w3.org/Graphics/SVG/1.1/DTD/svg11.dtd">
<!-- Generated by graphviz version 2.42.4 (0)
 -->
<!-- Title: Architecture Pages: 1 -->
<svg width="993pt" height="720pt"
 viewBox="0.00 0.00 992.78 720.00" xmlns="http://www.w3.org/2000/svg" xmlns:xlink="http://www.w3.org/1999/xlink">
<g id="graph0" class="graph" transform="scale(0.65 0.65) rotate(0) translate(28.8 1086.17)">
<title>Architecture</title>
<polygon fill="white" stroke="transparent" points="-28.8,28.8 -28.8,-1086.17 1508.6,-1086.17 1508.6,28.8 -28.8,28.8"/>
<g id="clust2" class="cluster">
<title>cluster_cli</title>
<polygon fill="#e8f5e9" stroke="#2e7d32" stroke-width="2" stroke-dasharray="5,2" points="249.18,-140.12 249.18,-902.38 622.13,-902.38 622.13,-140.12 249.18,-140.12"/>
<text text-anchor="middle" x="435.65" y="-890.77" font-family="Helvetica,Arial,sans-serif" font-size="9.50" fill="#2e7d32">CLI / Local Deployment</text>
</g>
<g id="clust3" class="cluster">
<title>cluster_qsvc</title>
<polygon fill="#f5f5f5" stroke="#9e9e9e" stroke-width="1.3" points="414.93,-675.88 414.93,-875.38 613.4,-875.38 613.4,-675.88 414.93,-675.88"/>
<text text-anchor="middle" x="514.17" y="-864.58" font-family="Helvetica,Arial,sans-serif" font-size="8.50" fill="#2e7d32">RFC 865 QuoteService &#160;(TCP+UDP port 17)</text>
</g>
<g id="clust4" class="cluster">
<title>cluster_tel</title>
<polygon fill="#f5f5f5" stroke="#9e9e9e" stroke-width="1.3" points="257.9,-252.25 257.9,-642.38 414.93,-642.38 414.93,-252.25 257.9,-252.25"/>
<text text-anchor="middle" x="336.42" y="-631.58" font-family="Helvetica,Arial,sans-serif" font-size="8.50" fill="#2e7d32">Local Telemetry</text>
</g>
<g id="clust5" class="cluster">
<title>cluster_cf</title>
<polygon fill="#e3f2fd" stroke="#1565c0" stroke-width="2" stroke-dasharray="5,2" points="788.97,-123 788.97,-379.75 1282.97,-379.75 1282.97,-123 788.97,-123"/>
<text text-anchor="middle" x="1035.97" y="-368.15" font-family="Helvetica,Arial,sans-serif" font-size="9.50" fill="#1565c0">Cloudflare Edge Deployment</text>
</g>
<g id="clust6" class="cluster">
<title>cluster_cftel</title>
<polygon fill="#f5f5f5" stroke="#9e9e9e" stroke-width="1.3" points="797.7,-131 797.7,-352.75 974.36,-352.75 974.36,-131 797.7,-131"/>
<text text-anchor="middle" x="886.03" y="-341.95" font-family="Helvetica,Arial,sans-serif" font-size="8.50" fill="#1565c0">Cloudflare Telemetry</text>
</g>
<!-- time_of_day -->
<g id="node1" class="node">
<title>time_of_day</title>
<path fill="#ede9fe" stroke="#5b21b6" stroke-width="1.6" d="M181.57,-1057.5C181.57,-1057.5 20.57,-1057.5 20.57,-1057.5 14.57,-1057.5 8.57,-1051.5 8.57,-1045.5 8.57,-1045.5 8.57,-1014.5 8.57,-1014.5 8.57,-1008.5 14.57,-1002.5 20.57,-1002.5 20.57,-1002.5 181.57,-1002.5 181.57,-1002.5 187.57,-1002.5 193.57,-1008.5 193.57,-1014.5 193.57,-1014.5 193.57,-1045.5 193.57,-1045.5 193.57,-1051.5 187.57,-1057.5 181.57,-1057.5"/>
<text text-anchor="middle" x="101.07" y="-1045.7" font-family="Helvetica,Arial,sans-serif" font-size="8.50" fill="#111111">«enum»</text>
<text text-anchor="middle" x="101.07" y="-1036.7" font-family="Helvetica,Arial,sans-serif" font-size="8.50" fill="#111111">TimeOfDay</text>
<text text-anchor="middle" x="101.07" y="-1027.7" font-family="Helvetica,Arial,sans-serif" font-size="8.50" fill="#111111">time_of_day.py</text>
<text text-anchor="middle" x="101.07" y="-1018.7" font-family="Helvetica,Arial,sans-serif" font-size="8.50" fill="#111111">MORNING/AFTERNOON/EVENING/NIGHT</text>
<text text-anchor="middle" x="101.07" y="-1009.7" font-family="Helvetica,Arial,sans-serif" font-size="8.50" fill="#111111">.salutation &#160;.color</text>
</g>
<!-- quote_provider -->
<g id="node2" class="node">
<title>quote_provider</title>
<path fill="#dbeafe" stroke="#1d4ed8" stroke-width="1.6" d="M464.57,-1053C464.57,-1053 337.57,-1053 337.57,-1053 331.57,-1053 325.57,-1047 325.57,-1041 325.57,-1041 325.57,-1019 325.57,-1019 325.57,-1013 331.57,-1007 337.57,-1007 337.57,-1007 464.57,-1007 464.57,-1007 470.57,-1007 476.57,-1013 476.57,-1019 476.57,-1019 476.57,-1041 476.57,-1041 476.57,-1047 470.57,-1053 464.57,-1053"/>
<text text-anchor="middle" x="401.07" y="-1041.2" font-family="Helvetica,Arial,sans-serif" font-size="8.50" fill="#111111">QuoteProvider</text>
<text text-anchor="middle" x="401.07" y="-1032.2" font-family="Helvetica,Arial,sans-serif" font-size="8.50" fill="#111111">quote_provider.py</text>
<text text-anchor="middle" x="401.07" y="-1023.2" font-family="Helvetica,Arial,sans-serif" font-size="8.50" fill="#111111">Shuffle&#45;deck, 100+ RFC 865 quotes</text>
<text text-anchor="middle" x="401.07" y="-1014.2" font-family="Helvetica,Arial,sans-serif" font-size="8.50" fill="#111111">.get() → str</text>
</g>
<!-- quote_svc -->
<g id="node5" class="node">
<title>quote_svc</title>
<path fill="#dbeafe" stroke="#1d4ed8" stroke-width="1.6" d="M532.07,-833C532.07,-833 450.07,-833 450.07,-833 444.07,-833 438.07,-827 438.07,-821 438.07,-821 438.07,-799 438.07,-799 438.07,-793 444.07,-787 450.07,-787 450.07,-787 532.07,-787 532.07,-787 538.07,-787 544.07,-793 544.07,-799 544.07,-799 544.07,-821 544.07,-821 544.07,-827 538.07,-833 532.07,-833"/>
<text text-anchor="middle" x="491.07" y="-821.2" font-family="Helvetica,Arial,sans-serif" font-size="8.50" fill="#111111">QuoteService</text>
<text text-anchor="middle" x="491.07" y="-812.2" font-family="Helvetica,Arial,sans-serif" font-size="8.50" fill="#111111">quote_service.py</text>
<text text-anchor="middle" x="491.07" y="-803.2" font-family="Helvetica,Arial,sans-serif" font-size="8.50" fill="#111111">.start_tcp() &#160;.start_udp()</text>
<text text-anchor="middle" x="491.07" y="-794.2" font-family="Helvetica,Arial,sans-serif" font-size="8.50" fill="#111111">.stop()</text>
</g>
<!-- quote_provider&#45;&gt;quote_svc -->
<g id="edge4" class="edge">
<title>quote_provider&#45;&gt;quote_svc</title>
<path fill="none" stroke="#be123c" stroke-width="1.2" stroke-dasharray="5,2" d="M410.19,-1006.9C426.77,-966.75 461.78,-881.96 479.81,-838.28"/>
<polygon fill="#be123c" stroke="#be123c" stroke-width="1.2" points="481.6,-838.98 481.92,-833.16 478.04,-837.51 481.6,-838.98"/>
<text text-anchor="middle" x="454.57" y="-945" font-family="Helvetica,Arial,sans-serif" font-size="7.50" fill="#be123c"> TCP get() </text>
</g>
<!-- cli_caller -->
<g id="node3" class="node">
<title>cli_caller</title>
<polygon fill="#f0fdf4" stroke="#166534" stroke-width="1.6" points="396.07,-828 268.07,-828 268.07,-792 396.07,-792 396.07,-828"/>
<polygon fill="none" stroke="#166534" stroke-width="1.6" points="400.07,-832 264.07,-832 264.07,-788 400.07,-788 400.07,-832"/>
<text text-anchor="middle" x="332.07" y="-812.2" font-family="Helvetica,Arial,sans-serif" font-size="8.50" fill="#111111">__main__ / Caller</text>
<text text-anchor="middle" x="332.07" y="-803.2" font-family="Helvetica,Arial,sans-serif" font-size="8.50" fill="#111111">python3 &#45;m src.greeting Alice</text>
</g>
<!-- greeting -->
<g id="node4" class="node">
<title>greeting</title>
<path fill="#dbeafe" stroke="#1d4ed8" stroke-width="1.6" d="M363.07,-729C363.07,-729 301.07,-729 301.07,-729 295.07,-729 289.07,-723 289.07,-717 289.07,-717 289.07,-695 289.07,-695 289.07,-689 295.07,-683 301.07,-683 301.07,-683 363.07,-683 363.07,-683 369.07,-683 375.07,-689 375.07,-695 375.07,-695 375.07,-717 375.07,-717 375.07,-723 369.07,-729 363.07,-729"/>
<text text-anchor="middle" x="332.07" y="-717.2" font-family="Helvetica,Arial,sans-serif" font-size="8.50" fill="#111111">Greeting</text>
<text text-anchor="middle" x="332.07" y="-708.2" font-family="Helvetica,Arial,sans-serif" font-size="8.50" fill="#111111">greeting.py</text>
<text text-anchor="middle" x="332.07" y="-699.2" font-family="Helvetica,Arial,sans-serif" font-size="8.50" fill="#111111">.build(now) → str</text>
<text text-anchor="middle" x="332.07" y="-690.2" font-family="Helvetica,Arial,sans-serif" font-size="8.50" fill="#111111">.run(now) → None</text>
</g>
<!-- cli_caller&#45;&gt;greeting -->
<g id="edge1" class="edge">
<title>cli_caller&#45;&gt;greeting</title>
<path fill="none" stroke="#1d4ed8" stroke-width="1.2" d="M332.07,-787.87C332.07,-772.45 332.07,-751.42 332.07,-734.67"/>
<polygon fill="#1d4ed8" stroke="#1d4ed8" stroke-width="1.2" points="333.99,-734.67 332.07,-729.17 330.14,-734.67 333.99,-734.67"/>
<text text-anchor="middle" x="350.57" y="-756" font-family="Helvetica,Arial,sans-serif" font-size="7.50" fill="#1d4ed8"> name: str </text>
</g>
<!-- greeting&#45;&gt;time_of_day -->
<g id="edge2" class="edge">
<title>greeting&#45;&gt;time_of_day</title>
<path fill="none" stroke="#166534" stroke-width="1.2" d="M288.7,-717.9C233.46,-731.79 145.07,-754 145.07,-754 145.07,-754 106.07,-910 106.07,-910 106.07,-910 103.9,-961.55 102.42,-996.79"/>
<polygon fill="#166534" stroke="#166534" stroke-width="1.2" points="100.5,-996.72 102.19,-1002.29 104.35,-996.88 100.5,-996.72"/>
<text text-anchor="middle" x="128.57" y="-912" font-family="Helvetica,Arial,sans-serif" font-size="7.50" fill="#166534"> from_hour() </text>
</g>
<!-- greeting&#45;&gt;quote_provider -->
<g id="edge3" class="edge">
<title>greeting&#45;&gt;quote_provider</title>
<path fill="none" stroke="#166534" stroke-width="1.2" d="M309.51,-729.28C285.54,-752.96 251.07,-787 251.07,-787 251.07,-787 251.07,-902 251.07,-902 251.07,-902 326.68,-966.02 370.54,-1003.15"/>
<polygon fill="#166534" stroke="#166534" stroke-width="1.2" points="369.5,-1004.79 374.94,-1006.88 371.99,-1001.86 369.5,-1004.79"/>
<text text-anchor="middle" x="279.07" y="-912" font-family="Helvetica,Arial,sans-serif" font-size="7.50" fill="#166534"> get() </text>
</g>
<!-- telemetry -->
<g id="node7" class="node">
<title>telemetry</title>
<path fill="#dbeafe" stroke="#1d4ed8" stroke-width="1.6" d="M387.57,-600C387.57,-600 284.57,-600 284.57,-600 278.57,-600 272.57,-594 272.57,-588 272.57,-588 272.57,-566 272.57,-566 272.57,-560 278.57,-554 284.57,-554 284.57,-554 387.57,-554 387.57,-554 393.57,-554 399.57,-560 399.57,-566 399.57,-566 399.57,-588 399.57,-588 399.57,-594 393.57,-600 387.57,-600"/>
<text text-anchor="middle" x="336.07" y="-588.2" font-family="Helvetica,Arial,sans-serif" font-size="8.50" fill="#111111">TelemetryStore</text>
<text text-anchor="middle" x="336.07" y="-579.2" font-family="Helvetica,Arial,sans-serif" font-size="8.50" fill="#111111">telemetry.py</text>
<text text-anchor="middle" x="336.07" y="-570.2" font-family="Helvetica,Arial,sans-serif" font-size="8.50" fill="#111111">Async queue writer</text>
<text text-anchor="middle" x="336.07" y="-561.2" font-family="Helvetica,Arial,sans-serif" font-size="8.50" fill="#111111">.record() &#160;.measure() &#160;.flush()</text>
</g>
<!-- greeting&#45;&gt;telemetry -->
<g id="edge6" class="edge">
<title>greeting&#45;&gt;telemetry</title>
<path fill="none" stroke="#854d0e" stroke-width="1.2" stroke-dasharray="5,2" d="M332.77,-682.88C333.44,-661.52 334.46,-629.1 335.19,-605.96"/>
<polygon fill="#854d0e" stroke="#854d0e" stroke-width="1.2" points="337.12,-605.85 335.37,-600.29 333.27,-605.73 337.12,-605.85"/>
<text text-anchor="middle" x="369.07" y="-652" font-family="Helvetica,Arial,sans-serif" font-size="7.50" fill="#854d0e"> record(duration_ns) </text>
</g>
<!-- terminal -->
<g id="node10" class="node">
<title>terminal</title>
<polygon fill="#f0fdf4" stroke="#166534" stroke-width="1.6" points="471.07,-189.5 381.07,-189.5 381.07,-152.5 471.07,-152.5 471.07,-189.5"/>
<polygon fill="none" stroke="#166534" stroke-width="1.6" points="475.07,-193.5 377.07,-193.5 377.07,-148.5 475.07,-148.5 475.07,-193.5"/>
<text text-anchor="middle" x="426.07" y="-177.7" font-family="Helvetica,Arial,sans-serif" font-size="8.50" fill="#111111">Terminal (stdout)</text>
<text text-anchor="middle" x="426.07" y="-168.7" font-family="Helvetica,Arial,sans-serif" font-size="8.50" fill="#111111">colourised greeting</text>
<text text-anchor="middle" x="426.07" y="-159.7" font-family="Helvetica,Arial,sans-serif" font-size="8.50" fill="#111111">p50/p95/p99 stats</text>
</g>
<!-- greeting&#45;&gt;terminal -->
<g id="edge10" class="edge">
<title>greeting&#45;&gt;terminal</title>
<path fill="none" stroke="#166534" stroke-width="1.2" d="M369.26,-682.88C389.75,-670.69 411.07,-658 411.07,-658 411.07,-658 421.07,-642 421.07,-642 421.07,-642 451.07,-578 451.07,-578 451.07,-578 451.07,-578 451.07,-287 451.07,-287 442.07,-227 442.07,-227 442.07,-227 438.01,-213.06 433.99,-199.21"/>
<polygon fill="#166534" stroke="#166534" stroke-width="1.2" points="435.78,-198.48 432.39,-193.74 432.08,-199.56 435.78,-198.48"/>
<text text-anchor="middle" x="477.57" y="-457" font-family="Helvetica,Arial,sans-serif" font-size="7.50" fill="#166534"> greeting string </text>
</g>
<!-- tcp_client -->
<g id="node6" class="node">
<title>tcp_client</title>
<polygon fill="#f0fdf4" stroke="#166534" stroke-width="1.6" points="533.57,-724.5 448.57,-724.5 448.57,-687.5 533.57,-687.5 533.57,-724.5"/>
<polygon fill="none" stroke="#166534" stroke-width="1.6" points="537.57,-728.5 444.57,-728.5 444.57,-683.5 537.57,-683.5 537.57,-728.5"/>
<text text-anchor="middle" x="491.07" y="-712.7" font-family="Helvetica,Arial,sans-serif" font-size="8.50" fill="#111111">TCP/UDP Client</text>
<text text-anchor="middle" x="491.07" y="-703.7" font-family="Helvetica,Arial,sans-serif" font-size="8.50" fill="#111111">RFC 865 port 17</text>
<text text-anchor="middle" x="491.07" y="-694.7" font-family="Helvetica,Arial,sans-serif" font-size="8.50" fill="#111111">(loopback default)</text>
</g>
<!-- quote_svc&#45;&gt;tcp_client -->
<g id="edge5" class="edge">
<title>quote_svc&#45;&gt;tcp_client</title>
<path fill="none" stroke="#be123c" stroke-width="1.2" stroke-dasharray="5,2" d="M491.07,-786.87C491.07,-771.53 491.07,-750.99 491.07,-734.58"/>
<polygon fill="#be123c" stroke="#be123c" stroke-width="1.2" points="492.99,-734.24 491.07,-728.74 489.14,-734.24 492.99,-734.24"/>
<text text-anchor="middle" x="513.57" y="-756" font-family="Helvetica,Arial,sans-serif" font-size="7.50" fill="#be123c"> quote bytes </text>
</g>
<!-- sqlite -->
<g id="node9" class="node">
<title>sqlite</title>
<path fill="#fef9c3" stroke="#854d0e" stroke-width="1.6" d="M390.57,-489.78C390.57,-493.56 366.14,-496.63 336.07,-496.63 306,-496.63 281.57,-493.56 281.57,-489.78 281.57,-489.78 281.57,-428.22 281.57,-428.22 281.57,-424.44 306,-421.37 336.07,-421.37 366.14,-421.37 390.57,-424.44 390.57,-428.22 390.57,-428.22 390.57,-489.78 390.57,-489.78"/>
<path fill="none" stroke="#854d0e" stroke-width="1.6" d="M390.57,-489.78C390.57,-486.01 366.14,-482.94 336.07,-482.94 306,-482.94 281.57,-486.01 281.57,-489.78"/>
<text text-anchor="middle" x="336.07" y="-474.7" font-family="Helvetica,Arial,sans-serif" font-size="8.50" fill="#111111">SQLite DB</text>
<text text-anchor="middle" x="336.07" y="-465.7" font-family="Helvetica,Arial,sans-serif" font-size="8.50" fill="#111111">greeting_telemetry.db</text>
<text text-anchor="middle" x="336.07" y="-456.7" font-family="Helvetica,Arial,sans-serif" font-size="8.50" fill="#111111">events(id, timestamp,</text>
<text text-anchor="middle" x="336.07" y="-447.7" font-family="Helvetica,Arial,sans-serif" font-size="8.50" fill="#111111">event_type, duration_ns,</text>
<text text-anchor="middle" x="336.07" y="-438.7" font-family="Helvetica,Arial,sans-serif" font-size="8.50" fill="#111111">success, error_msg)</text>
</g>
<!-- telemetry&#45;&gt;sqlite -->
<g id="edge7" class="edge">
<title>telemetry&#45;&gt;sqlite</title>
<path fill="none" stroke="#854d0e" stroke-width="1.2" stroke-dasharray="5,2" d="M314.89,-553.88C303.22,-541.69 291.07,-529 291.07,-529 291.07,-529 291.07,-521 291.07,-521 291.07,-521 297.54,-512.22 305.58,-501.33"/>
<polygon fill="#854d0e" stroke="#854d0e" stroke-width="1.2" points="307.14,-502.46 308.85,-496.89 304.04,-500.17 307.14,-502.46"/>
<text text-anchor="middle" x="318.57" y="-523" font-family="Helvetica,Arial,sans-serif" font-size="7.50" fill="#854d0e"> INSERT async </text>
</g>
<!-- stats -->
<g id="node8" class="node">
<title>stats</title>
<path fill="#dbeafe" stroke="#1d4ed8" stroke-width="1.6" d="M382.57,-315.5C382.57,-315.5 311.57,-315.5 311.57,-315.5 305.57,-315.5 299.57,-309.5 299.57,-303.5 299.57,-303.5 299.57,-272.5 299.57,-272.5 299.57,-266.5 305.57,-260.5 311.57,-260.5 311.57,-260.5 382.57,-260.5 382.57,-260.5 388.57,-260.5 394.57,-266.5 394.57,-272.5 394.57,-272.5 394.57,-303.5 394.57,-303.5 394.57,-309.5 388.57,-315.5 382.57,-315.5"/>
<text text-anchor="middle" x="347.07" y="-303.7" font-family="Helvetica,Arial,sans-serif" font-size="8.50" fill="#111111">StatsReporter</text>
<text text-anchor="middle" x="347.07" y="-294.7" font-family="Helvetica,Arial,sans-serif" font-size="8.50" fill="#111111">stats.py</text>
<text text-anchor="middle" x="347.07" y="-285.7" font-family="Helvetica,Arial,sans-serif" font-size="8.50" fill="#111111">.session_summary()</text>
<text text-anchor="middle" x="347.07" y="-276.7" font-family="Helvetica,Arial,sans-serif" font-size="8.50" fill="#111111">.historic_summary()</text>
<text text-anchor="middle" x="347.07" y="-267.7" font-family="Helvetica,Arial,sans-serif" font-size="8.50" fill="#111111">.format_summary()</text>
</g>
<!-- stats&#45;&gt;terminal -->
<g id="edge9" class="edge">
<title>stats&#45;&gt;terminal</title>
<path fill="none" stroke="#166534" stroke-width="1.2" d="M365.39,-260.33C378.25,-241.61 395.36,-216.71 408.13,-198.11"/>
<polygon fill="#166534" stroke="#166534" stroke-width="1.2" points="409.75,-199.15 411.28,-193.53 406.58,-196.97 409.75,-199.15"/>
<text text-anchor="middle" x="411.07" y="-229" font-family="Helvetica,Arial,sans-serif" font-size="7.50" fill="#166534"> p50/p95/p99 </text>
</g>
<!-- sqlite&#45;&gt;stats -->
<g id="edge8" class="edge">
<title>sqlite&#45;&gt;stats</title>
<path fill="none" stroke="#166534" stroke-width="1.2" stroke-dasharray="5,2" d="M308.19,-421.22C298.07,-407.87 289.07,-396 289.07,-396 289.07,-396 289.07,-388 289.07,-388 289.07,-388 311.66,-349.45 328.64,-320.46"/>
<polygon fill="#166534" stroke="#166534" stroke-width="1.2" points="330.41,-321.25 331.53,-315.53 327.08,-319.3 330.41,-321.25"/>
<text text-anchor="middle" x="319.07" y="-390" font-family="Helvetica,Arial,sans-serif" font-size="7.50" fill="#166534"> SELECT metrics </text>
</g>
<!-- legend -->
<g id="node21" class="node">
<title>legend</title>
<path fill="#fafafa" stroke="transparent" d="M133.07,-0.5C133.07,-0.5 719.07,-0.5 719.07,-0.5 725.07,-0.5 731.07,-6.5 731.07,-12.5 731.07,-12.5 731.07,-69.5 731.07,-69.5 731.07,-75.5 725.07,-81.5 719.07,-81.5 719.07,-81.5 133.07,-81.5 133.07,-81.5 127.07,-81.5 121.07,-75.5 121.07,-69.5 121.07,-69.5 121.07,-12.5 121.07,-12.5 121.07,-6.5 127.07,-0.5 133.07,-0.5"/>
<text text-anchor="start" x="410.07" y="-65.8" font-family="Helvetica,Arial,sans-serif" font-weight="bold" font-size="9.00" fill="#333333">Legend</text>
<polygon fill="#dbeafe" stroke="transparent" points="125.07,-4 125.07,-54 225.07,-54 225.07,-4 125.07,-4"/>
<polygon fill="none" stroke="#1d4ed8" stroke-width="2" points="126.07,-5 126.07,-53 224.07,-53 224.07,-5 126.07,-5"/>
<text text-anchor="start" x="151.07" y="-27.4" font-family="Helvetica,Arial,sans-serif" font-size="7.00">Class / Module</text>
<polygon fill="#ede9fe" stroke="transparent" stroke-width="2" points="228.07,-4 228.07,-54 328.07,-54 328.07,-4 228.07,-4"/>
<polygon fill="none" stroke="#5b21b6" stroke-width="2" points="229.07,-5 229.07,-53 327.07,-53 327.07,-5 229.07,-5"/>
<text text-anchor="start" x="265.57" y="-27.4" font-family="Helvetica,Arial,sans-serif" font-size="7.00">«enum»</text>
<polygon fill="#fef9c3" stroke="transparent" stroke-width="2" points="331.07,-4 331.07,-54 431.07,-54 431.07,-4 331.07,-4"/>
<polygon fill="none" stroke="#854d0e" stroke-width="2" points="332.07,-5 332.07,-53 430.07,-53 430.07,-5 332.07,-5"/>
<text text-anchor="start" x="364.07" y="-27.4" font-family="Helvetica,Arial,sans-serif" font-size="7.00">Data Store</text>
<polygon fill="#f0fdf4" stroke="transparent" stroke-width="2" points="434.07,-4 434.07,-54 534.07,-54 534.07,-4 434.07,-4"/>
<polygon fill="none" stroke="#166534" stroke-width="2" points="435.07,-5 435.07,-53 533.07,-53 533.07,-5 435.07,-5"/>
<text text-anchor="start" x="461.07" y="-27.4" font-family="Helvetica,Arial,sans-serif" font-size="7.00">External Entity</text>
<polygon fill="#fff1f2" stroke="transparent" stroke-width="2" points="537.07,-4 537.07,-54 637.07,-54 637.07,-4 537.07,-4"/>
<polygon fill="none" stroke="#be123c" stroke-width="2" points="538.07,-5 538.07,-53 636.07,-53 636.07,-5 538.07,-5"/>
<text text-anchor="start" x="572.57" y="-27.4" font-family="Helvetica,Arial,sans-serif" font-size="7.00">Infra / CI</text>
<text text-anchor="start" x="645.07" y="-43.4" font-family="Helvetica,Arial,sans-serif" font-size="7.00" fill="#1d4ed8">── composition / owns</text>
<text text-anchor="start" x="657.57" y="-35.4" font-family="Helvetica,Arial,sans-serif" font-size="7.00" fill="#166534">── uses / calls</text>
<text text-anchor="start" x="661.57" y="-27.4" font-family="Helvetica,Arial,sans-serif" font-size="7.00" fill="#854d0e">&#45; &#45; async write</text>
<text text-anchor="start" x="647.57" y="-19.4" font-family="Helvetica,Arial,sans-serif" font-size="7.00" fill="#be123c">── network / external</text>
<text text-anchor="start" x="661.57" y="-11.4" font-family="Helvetica,Arial,sans-serif" font-size="7.00" fill="#7c3aed">&#45; &#45; deploy / CI</text>
<path fill="none" stroke="#cccccc" d="M133.07,-0.5C133.07,-0.5 719.07,-0.5 719.07,-0.5 725.07,-0.5 731.07,-6.5 731.07,-12.5 731.07,-12.5 731.07,-69.5 731.07,-69.5 731.07,-75.5 725.07,-81.5 719.07,-81.5 719.07,-81.5 133.07,-81.5 133.07,-81.5 127.07,-81.5 121.07,-75.5 121.07,-69.5 121.07,-69.5 121.07,-12.5 121.07,-12.5 121.07,-6.5 127.07,-0.5 133.07,-0.5"/>
</g>
<!-- terminal&#45;&gt;legend -->
<!-- worker -->
<g id="node11" class="node">
<title>worker</title>
<path fill="#eff6ff" stroke="#1e40af" stroke-width="2" d="M1395.57,-195C1395.57,-195 1308.57,-195 1308.57,-195 1302.57,-195 1296.57,-189 1296.57,-183 1296.57,-183 1296.57,-159 1296.57,-159 1296.57,-153 1302.57,-147 1308.57,-147 1308.57,-147 1395.57,-147 1395.57,-147 1401.57,-147 1407.57,-153 1407.57,-159 1407.57,-159 1407.57,-183 1407.57,-183 1407.57,-189 1401.57,-195 1395.57,-195"/>
<text text-anchor="middle" x="1352.07" y="-182.2" font-family="Helvetica,Arial,sans-serif" font-size="8.50" fill="#111111">Worker &#160;entry.py</text>
<text text-anchor="middle" x="1352.07" y="-173.2" font-family="Helvetica,Arial,sans-serif" font-size="8.50" fill="#111111">Default.fetch(request)</text>
<text text-anchor="middle" x="1352.07" y="-164.2" font-family="Helvetica,Arial,sans-serif" font-size="8.50" fill="#111111">GET / &#160;GET /quote</text>
<text text-anchor="middle" x="1352.07" y="-155.2" font-family="Helvetica,Arial,sans-serif" font-size="8.50" fill="#111111">GET /stats &#160;POST /reset</text>
</g>
<!-- worker&#45;&gt;time_of_day -->
<g id="edge13" class="edge">
<title>worker&#45;&gt;time_of_day</title>
<path fill="none" stroke="#166534" stroke-width="1.2" d="M1296.33,-177.47C1154.68,-191.39 792.07,-227 792.07,-227 792.07,-227 619.07,-729 619.07,-729 619.07,-729 243.07,-754 243.07,-754 243.07,-754 154.74,-925.06 117.41,-997.35"/>
<polygon fill="#166534" stroke="#166534" stroke-width="1.2" points="115.63,-996.61 114.81,-1002.38 119.05,-998.38 115.63,-996.61"/>
<text text-anchor="middle" x="667.57" y="-652" font-family="Helvetica,Arial,sans-serif" font-size="7.50" fill="#166534"> from_hour() </text>
</g>
<!-- worker&#45;&gt;quote_provider -->
<g id="edge14" class="edge">
<title>worker&#45;&gt;quote_provider</title>
<path fill="none" stroke="#166534" stroke-width="1.2" d="M1364.2,-195.01C1372.15,-210.08 1381.07,-227 1381.07,-227 1381.07,-227 1381.07,-235 1381.07,-235 1381.07,-235 1289.07,-380 1289.07,-380 1289.07,-380 619.07,-902 619.07,-902 619.07,-902 507.39,-967.06 443.9,-1004.05"/>
<polygon fill="#166534" stroke="#166534" stroke-width="1.2" points="442.83,-1002.45 439.04,-1006.88 444.76,-1005.77 442.83,-1002.45"/>
<text text-anchor="middle" x="950.07" y="-652" font-family="Helvetica,Arial,sans-serif" font-size="7.50" fill="#166534"> get() </text>
</g>
<!-- browser -->
<g id="node12" class="node">
<title>browser</title>
<polygon fill="#f0fdf4" stroke="#166534" stroke-width="1.6" points="1262.57,-306.5 1117.57,-306.5 1117.57,-269.5 1262.57,-269.5 1262.57,-306.5"/>
<polygon fill="none" stroke="#166534" stroke-width="1.6" points="1266.57,-310.5 1113.57,-310.5 1113.57,-265.5 1266.57,-265.5 1266.57,-310.5"/>
<text text-anchor="middle" x="1190.07" y="-294.7" font-family="Helvetica,Arial,sans-serif" font-size="8.50" fill="#111111">Browser / curl</text>
<text text-anchor="middle" x="1190.07" y="-285.7" font-family="Helvetica,Arial,sans-serif" font-size="8.50" fill="#111111">HTTPS GET /?name=Alice</text>
<text text-anchor="middle" x="1190.07" y="-276.7" font-family="Helvetica,Arial,sans-serif" font-size="8.50" fill="#111111">Accept: text/html | application/json</text>
</g>
<!-- worker&#45;&gt;browser -->
<g id="edge12" class="edge">
<title>worker&#45;&gt;browser</title>
<path fill="none" stroke="#be123c" stroke-width="1.2" stroke-dasharray="5,2" d="M1340.34,-195.1C1331.2,-213.08 1320.07,-235 1320.07,-235 1320.07,-235 1283.78,-249.52 1249.54,-263.21"/>
<polygon fill="#be123c" stroke="#be123c" stroke-width="1.2" points="1248.46,-261.57 1244.07,-265.4 1249.89,-265.14 1248.46,-261.57"/>
<text text-anchor="middle" x="1349.07" y="-229" font-family="Helvetica,Arial,sans-serif" font-size="7.50" fill="#be123c"> JSON / HTML </text>
</g>
<!-- cf_telemetry -->
<g id="node13" class="node">
<title>cf_telemetry</title>
<path fill="#dbeafe" stroke="#1d4ed8" stroke-width="1.6" d="M939.07,-311C939.07,-311 869.07,-311 869.07,-311 863.07,-311 857.07,-305 857.07,-299 857.07,-299 857.07,-277 857.07,-277 857.07,-271 863.07,-265 869.07,-265 869.07,-265 939.07,-265 939.07,-265 945.07,-265 951.07,-271 951.07,-277 951.07,-277 951.07,-299 951.07,-299 951.07,-305 945.07,-311 939.07,-311"/>
<text text-anchor="middle" x="904.07" y="-299.2" font-family="Helvetica,Arial,sans-serif" font-size="8.50" fill="#111111">CfTelemetry</text>
<text text-anchor="middle" x="904.07" y="-290.2" font-family="Helvetica,Arial,sans-serif" font-size="8.50" fill="#111111">cf_telemetry.py</text>
<text text-anchor="middle" x="904.07" y="-281.2" font-family="Helvetica,Arial,sans-serif" font-size="8.50" fill="#111111">.record() &#160;.reset()</text>
<text text-anchor="middle" x="904.07" y="-272.2" font-family="Helvetica,Arial,sans-serif" font-size="8.50" fill="#111111">.historic_summary()</text>
</g>
<!-- worker&#45;&gt;cf_telemetry -->
<g id="edge15" class="edge">
<title>worker&#45;&gt;cf_telemetry</title>
<path fill="none" stroke="#854d0e" stroke-width="1.2" stroke-dasharray="5,2" d="M1296.3,-181.71C1205.58,-197.5 1036.07,-227 1036.07,-227 1036.07,-227 955.07,-252.5 955.07,-252.5 955.07,-252.5 949.3,-256.4 941.64,-261.59"/>
<polygon fill="#854d0e" stroke="#854d0e" stroke-width="1.2" points="940.13,-260.28 936.66,-264.96 942.29,-263.47 940.13,-260.28"/>
<text text-anchor="middle" x="1051.57" y="-229" font-family="Helvetica,Arial,sans-serif" font-size="7.50" fill="#854d0e"> record() </text>
</g>
<!-- browser&#45;&gt;worker -->
<g id="edge11" class="edge">
<title>browser&#45;&gt;worker</title>
<path fill="none" stroke="#be123c" stroke-width="1.8" d="M1219.31,-265.34C1242.51,-248.15 1271.07,-227 1271.07,-227 1271.07,-227 1292.61,-212.37 1313.47,-198.21"/>
<polygon fill="#be123c" stroke="#be123c" stroke-width="1.8" points="1314.72,-199.69 1318.19,-195.01 1312.56,-196.5 1314.72,-199.69"/>
<text text-anchor="middle" x="1294.57" y="-229" font-family="Helvetica,Arial,sans-serif" font-size="7.50" fill="#be123c"> HTTPS GET </text>
</g>
<!-- cf_telemetry&#45;&gt;worker -->
<g id="edge18" class="edge">
<title>cf_telemetry&#45;&gt;worker</title>
<path fill="none" stroke="#166534" stroke-width="1.2" stroke-dasharray="5,2" d="M936.66,-264.96C946.65,-258.19 955.07,-252.5 955.07,-252.5 955.07,-252.5 1069.07,-235 1069.07,-235 1069.07,-235 1073.07,-227 1073.07,-227 1073.07,-227 1208.29,-200.34 1290.46,-184.15"/>
<polygon fill="#166534" stroke="#166534" stroke-width="1.2" points="1291.26,-185.95 1296.28,-183 1290.51,-182.17 1291.26,-185.95"/>
<text text-anchor="middle" x="1090.57" y="-229" font-family="Helvetica,Arial,sans-serif" font-size="7.50" fill="#166534"> stats dict </text>
</g>
<!-- d1_db -->
<g id="node14" class="node">
<title>d1_db</title>
<path fill="#fef9c3" stroke="#854d0e" stroke-width="1.6" d="M960.07,-196.98C960.07,-200.16 934.07,-202.75 902.07,-202.75 870.07,-202.75 844.07,-200.16 844.07,-196.98 844.07,-196.98 844.07,-145.02 844.07,-145.02 844.07,-141.84 870.07,-139.25 902.07,-139.25 934.07,-139.25 960.07,-141.84 960.07,-145.02 960.07,-145.02 960.07,-196.98 960.07,-196.98"/>
<path fill="none" stroke="#854d0e" stroke-width="1.6" d="M960.07,-196.98C960.07,-193.79 934.07,-191.2 902.07,-191.2 870.07,-191.2 844.07,-193.79 844.07,-196.98"/>
<text text-anchor="middle" x="902.07" y="-182.2" font-family="Helvetica,Arial,sans-serif" font-size="8.50" fill="#111111">D1 Database</text>
<text text-anchor="middle" x="902.07" y="-173.2" font-family="Helvetica,Arial,sans-serif" font-size="8.50" fill="#111111">Cloudflare D1 (cloud)</text>
<text text-anchor="middle" x="902.07" y="-164.2" font-family="Helvetica,Arial,sans-serif" font-size="8.50" fill="#111111">events table</text>
<text text-anchor="middle" x="902.07" y="-155.2" font-family="Helvetica,Arial,sans-serif" font-size="8.50" fill="#111111">(same schema as SQLite)</text>
</g>
<!-- cf_telemetry&#45;&gt;d1_db -->
<g id="edge16" class="edge">
<title>cf_telemetry&#45;&gt;d1_db</title>
<path fill="none" stroke="#854d0e" stroke-width="1.2" stroke-dasharray="5,2" d="M903.68,-264.83C903.41,-248.86 903.02,-226.95 902.7,-208.43"/>
<polygon fill="#854d0e" stroke="#854d0e" stroke-width="1.2" points="904.63,-208.26 902.6,-202.8 900.78,-208.33 904.63,-208.26"/>
<text text-anchor="middle" x="925.57" y="-229" font-family="Helvetica,Arial,sans-serif" font-size="7.50" fill="#854d0e"> D1 INSERT </text>
</g>
<!-- d1_db&#45;&gt;cf_telemetry -->
<g id="edge17" class="edge">
<title>d1_db&#45;&gt;cf_telemetry</title>
<path fill="none" stroke="#166534" stroke-width="1.2" stroke-dasharray="5,2" d="M873.59,-202.72C861.9,-215.31 851.07,-227 851.07,-227 851.07,-227 851.07,-235 851.07,-235 851.07,-235 864.27,-247.96 877.5,-260.93"/>
<polygon fill="#166534" stroke="#166534" stroke-width="1.2" points="876.32,-262.47 881.59,-264.95 879.01,-259.72 876.32,-262.47"/>
<text text-anchor="middle" x="874.07" y="-229" font-family="Helvetica,Arial,sans-serif" font-size="7.50" fill="#166534"> D1 SELECT </text>
</g>
<!-- d1_db&#45;&gt;legend -->
<!-- wrangler_cfg -->
<g id="node15" class="node">
<title>wrangler_cfg</title>
<polygon fill="#fff1f2" stroke="#be123c" stroke-width="1.6" points="1075.07,-311 987.07,-311 987.07,-265 1075.07,-265 1075.07,-311"/>
<text text-anchor="middle" x="1031.07" y="-299.2" font-family="Helvetica,Arial,sans-serif" font-size="8.50" fill="#111111">wrangler.local.toml</text>
<text text-anchor="middle" x="1031.07" y="-290.2" font-family="Helvetica,Arial,sans-serif" font-size="8.50" fill="#111111">CF API token</text>
<text text-anchor="middle" x="1031.07" y="-281.2" font-family="Helvetica,Arial,sans-serif" font-size="8.50" fill="#111111">D1 database_id</text>
<text text-anchor="middle" x="1031.07" y="-272.2" font-family="Helvetica,Arial,sans-serif" font-size="8.50" fill="#111111">(gitignored)</text>
</g>
<!-- wrangler_cfg&#45;&gt;worker -->
<g id="edge19" class="edge">
<title>wrangler_cfg&#45;&gt;worker</title>
<path fill="none" stroke="#7c3aed" stroke-width="1.2" stroke-dasharray="5,2" d="M1075.4,-265.15C1089.29,-258.3 1101.07,-252.5 1101.07,-252.5 1101.07,-252.5 1216.8,-215.38 1291.09,-191.56"/>
<polygon fill="#7c3aed" stroke="#7c3aed" stroke-width="1.2" points="1291.71,-193.38 1296.36,-189.87 1290.54,-189.71 1291.71,-193.38"/>
<text text-anchor="middle" x="1200.57" y="-229" font-family="Helvetica,Arial,sans-serif" font-size="7.50" fill="#7c3aed"> deploy config </text>
</g>
<!-- gh_push -->
<g id="node16" class="node">
<title>gh_push</title>
<polygon fill="#fff1f2" stroke="#be123c" stroke-width="1.6" points="855.07,-59 789.07,-59 789.07,-23 855.07,-23 855.07,-59"/>
<text text-anchor="middle" x="822.07" y="-43.2" font-family="Helvetica,Arial,sans-serif" font-size="8.50" fill="#111111">git push / PR</text>
<text text-anchor="middle" x="822.07" y="-34.2" font-family="Helvetica,Arial,sans-serif" font-size="8.50" fill="#111111">GitHub</text>
</g>
<!-- ci_runner -->
<g id="node17" class="node">
<title>ci_runner</title>
<polygon fill="#fff1f2" stroke="#be123c" stroke-width="1.6" points="1143.57,-64 1054.57,-64 1054.57,-18 1143.57,-18 1143.57,-64"/>
<text text-anchor="middle" x="1099.07" y="-52.2" font-family="Helvetica,Arial,sans-serif" font-size="8.50" fill="#111111">CI Runner</text>
<text text-anchor="middle" x="1099.07" y="-43.2" font-family="Helvetica,Arial,sans-serif" font-size="8.50" fill="#111111">ubuntu&#45;latest</text>
<text text-anchor="middle" x="1099.07" y="-34.2" font-family="Helvetica,Arial,sans-serif" font-size="8.50" fill="#111111">python3 &#45;m unittest</text>
<text text-anchor="middle" x="1099.07" y="-25.2" font-family="Helvetica,Arial,sans-serif" font-size="8.50" fill="#111111">pytest / coverage</text>
</g>
<!-- gh_push&#45;&gt;ci_runner -->
<g id="edge20" class="edge">
<title>gh_push&#45;&gt;ci_runner</title>
<path fill="none" stroke="#7c3aed" stroke-width="1.2" d="M840.78,-59.27C859.51,-77.56 885.57,-103 885.57,-103 885.57,-103 912.57,-103 912.57,-103 912.57,-103 991.07,-81.5 991.07,-81.5 991.07,-81.5 1020.93,-70.3 1049.26,-59.68"/>
<polygon fill="#7c3aed" stroke="#7c3aed" stroke-width="1.2" points="1050.04,-61.44 1054.52,-57.71 1048.69,-57.84 1050.04,-61.44"/>
<text text-anchor="middle" x="899.07" y="-108" font-family="Helvetica,Arial,sans-serif" font-size="7.50" fill="#7c3aed"> trigger </text>
</g>
<!-- pip_audit -->
<g id="node18" class="node">
<title>pip_audit</title>
<polygon fill="#fff1f2" stroke="#be123c" stroke-width="1.6" points="1476.57,-59.5 1395.57,-59.5 1395.57,-22.5 1476.57,-22.5 1476.57,-59.5"/>
<text text-anchor="middle" x="1436.07" y="-47.7" font-family="Helvetica,Arial,sans-serif" font-size="8.50" fill="#111111">pip&#45;audit</text>
<text text-anchor="middle" x="1436.07" y="-38.7" font-family="Helvetica,Arial,sans-serif" font-size="8.50" fill="#111111">CVE scan</text>
<text text-anchor="middle" x="1436.07" y="-29.7" font-family="Helvetica,Arial,sans-serif" font-size="8.50" fill="#111111">&#45;&#45;require&#45;hashes</text>
</g>
<!-- ci_runner&#45;&gt;pip_audit -->
<g id="edge22" class="edge">
<title>ci_runner&#45;&gt;pip_audit</title>
<path fill="none" stroke="#7c3aed" stroke-width="1.2" d="M1143.84,-55.16C1180.75,-66.84 1227.07,-81.5 1227.07,-81.5 1227.07,-81.5 1333.07,-103 1333.07,-103 1333.07,-103 1363.07,-103 1363.07,-103 1363.07,-103 1388.86,-81.09 1409.79,-63.32"/>
<polygon fill="#7c3aed" stroke="#7c3aed" stroke-width="1.2" points="1411.22,-64.63 1414.17,-59.6 1408.73,-61.7 1411.22,-64.63"/>
<text text-anchor="middle" x="1348.07" y="-108" font-family="Helvetica,Arial,sans-serif" font-size="7.50" fill="#7c3aed"> dep list </text>
</g>
<!-- cf_deploy -->
<g id="node19" class="node">
<title>cf_deploy</title>
<polygon fill="#fff1f2" stroke="#be123c" stroke-width="1.6" points="1357.07,-59.5 1239.07,-59.5 1239.07,-22.5 1357.07,-22.5 1357.07,-59.5"/>
<text text-anchor="middle" x="1298.07" y="-47.7" font-family="Helvetica,Arial,sans-serif" font-size="8.50" fill="#111111">wrangler deploy</text>
<text text-anchor="middle" x="1298.07" y="-38.7" font-family="Helvetica,Arial,sans-serif" font-size="8.50" fill="#111111">&#45;&#45;config wrangler.local.toml</text>
<text text-anchor="middle" x="1298.07" y="-29.7" font-family="Helvetica,Arial,sans-serif" font-size="8.50" fill="#111111">Cloudflare Worker deploy</text>
</g>
<!-- ci_runner&#45;&gt;cf_deploy -->
<g id="edge23" class="edge">
<title>ci_runner&#45;&gt;cf_deploy</title>
<path fill="none" stroke="#7c3aed" stroke-width="1.2" d="M1143.73,-41C1170.05,-41 1203.82,-41 1233.05,-41"/>
<polygon fill="#7c3aed" stroke="#7c3aed" stroke-width="1.2" points="1233.33,-42.93 1238.83,-41 1233.33,-39.08 1233.33,-42.93"/>
<text text-anchor="middle" x="1191.32" y="-46" font-family="Helvetica,Arial,sans-serif" font-size="7.50" fill="#7c3aed"> on: push main </text>
</g>
<!-- cf_deploy&#45;&gt;worker -->
<g id="edge24" class="edge">
<title>cf_deploy&#45;&gt;worker</title>
<path fill="none" stroke="#7c3aed" stroke-width="1.8" d="M1298.32,-59.8C1298.61,-81.12 1299.07,-114 1299.07,-114 1299.07,-114 1312.89,-128.6 1326.41,-142.89"/>
<polygon fill="#7c3aed" stroke="#7c3aed" stroke-width="1.8" points="1325.03,-144.23 1330.21,-146.9 1327.82,-141.58 1325.03,-144.23"/>
<text text-anchor="middle" x="1313.07" y="-108" font-family="Helvetica,Arial,sans-serif" font-size="7.50" fill="#7c3aed"> deploy </text>
</g>
<!-- pypi -->
<g id="node20" class="node">
<title>pypi</title>
<polygon fill="#f0fdf4" stroke="#166534" stroke-width="1.6" points="974.57,-59.5 893.57,-59.5 893.57,-22.5 974.57,-22.5 974.57,-59.5"/>
<polygon fill="none" stroke="#166534" stroke-width="1.6" points="978.57,-63.5 889.57,-63.5 889.57,-18.5 978.57,-18.5 978.57,-63.5"/>
<text text-anchor="middle" x="934.07" y="-47.7" font-family="Helvetica,Arial,sans-serif" font-size="8.50" fill="#111111">PyPI Registry</text>
<text text-anchor="middle" x="934.07" y="-38.7" font-family="Helvetica,Arial,sans-serif" font-size="8.50" fill="#111111">pip install</text>
<text text-anchor="middle" x="934.07" y="-29.7" font-family="Helvetica,Arial,sans-serif" font-size="8.50" fill="#111111">&#45;&#45;require&#45;hashes</text>
</g>
<!-- pypi&#45;&gt;ci_runner -->
<g id="edge21" class="edge">
<title>pypi&#45;&gt;ci_runner</title>
<path fill="none" stroke="#be123c" stroke-width="1.5" d="M978.72,-41C1000.36,-41 1026.45,-41 1048.79,-41"/>
<polygon fill="#be123c" stroke="#be123c" stroke-width="1.5" points="1048.88,-42.93 1054.38,-41 1048.88,-39.08 1048.88,-42.93"/>
<text text-anchor="middle" x="1016.57" y="-46" font-family="Helvetica,Arial,sans-serif" font-size="7.50" fill="#be123c"> pip install </text>
</g>
</g>
</svg>
