<?xml version="1.0" encoding="UTF-8" standalone="no"?>
<!DOCTYPE svg PUBLIC "-//W3C//DTD SVG 1.1//EN"
 "http://www.w3.org/Graphics/SVG/1.1/DTD/svg11.dtd">
<!-- Generated by graphviz version 2.42.4 (0)
 -->
<!-- Title: DFD Pages: 1 -->
<svg width="749pt" height="540pt"
 viewBox="0.00 0.00 748.70 540.00" xmlns="http://www.w3.org/2000/svg" xmlns:xlink="http://www.w3.org/1999/xlink">
<g id="graph0" class="graph" transform="scale(0.3 0.3) rotate(0) translate(25.2 1750.77)">
<title>DFD</title>
<polygon fill="white" stroke="transparent" points="-25.2,25.2 -25.2,-1750.77 2437.14,-1750.77 2437.14,25.2 -25.2,25.2"/>
<g id="clust1" class="cluster">
<title>cluster_tb1</title>
<polygon fill="#fff5f5" stroke="#cc2222" stroke-width="2" stroke-dasharray="5,2" points="238.24,-570.82 238.24,-1136.16 351.24,-1136.16 351.24,-570.82 238.24,-570.82"/>
<text text-anchor="middle" x="294.74" y="-1124.96" font-family="Helvetica,Arial,sans-serif" font-size="9.00" fill="#cc2222">TB&#45;1 &#160;Untrusted Internet</text>
</g>
<g id="clust2" class="cluster">
<title>cluster_tb2</title>
<polygon fill="#f5fff5" stroke="#1a6e1a" stroke-width="2" stroke-dasharray="5,2" points="8,-21.95 8,-548.87 580.99,-548.87 580.99,-21.95 8,-21.95"/>
<text text-anchor="middle" x="294.49" y="-537.67" font-family="Helvetica,Arial,sans-serif" font-size="9.00" fill="#1a6e1a">TB&#45;2 &#160;CI/CD Pipeline</text>
<text text-anchor="middle" x="294.49" y="-527.67" font-family="Helvetica,Arial,sans-serif" font-size="9.00" fill="#1a6e1a">(GitHub Actions)</text>
</g>
<g id="clust3" class="cluster">
<title>cluster_tb3</title>
<polygon fill="#eef3ff" stroke="#1a3acc" stroke-width="2" stroke-dasharray="5,2" points="646.58,-260.71 646.58,-521.43 1221.22,-521.43 1221.22,-260.71 646.58,-260.71"/>
<text text-anchor="middle" x="933.9" y="-510.23" font-family="Helvetica,Arial,sans-serif" font-size="9.00" fill="#1a3acc">TB&#45;3 &#160;Cloudflare Edge</text>
</g>
<g id="clust4" class="cluster">
<title>cluster_tb4</title>
<polygon fill="#f0fffd" stroke="#0e6b5a" stroke-width="2" stroke-dasharray="5,2" points="633.99,-878.19 633.99,-1621.91 1879.94,-1621.91 1879.94,-878.19 633.99,-878.19"/>
<text text-anchor="middle" x="1256.97" y="-1610.71" font-family="Helvetica,Arial,sans-serif" font-size="9.00" fill="#0e6b5a">TB&#45;4 &#160;Developer Workstation</text>
</g>
<g id="clust5" class="cluster">
<title>cluster_tb4a</title>
<polygon fill="#f8f8f8" stroke="#999999" stroke-width="1.3" points="872.6,-1111.46 872.6,-1550.56 1238.88,-1550.56 1238.88,-1111.46 872.6,-1111.46"/>
<text text-anchor="middle" x="1055.74" y="-1540.16" font-family="Helvetica,Arial,sans-serif" font-size="8.00" fill="#0e6b5a">TB&#45;4a &#160;CLI Subsystem</text>
</g>
<g id="clust6" class="cluster">
<title>cluster_tb4b</title>
<polygon fill="#f8f8f8" stroke="#999999" stroke-width="1.3" points="1350.88,-1298.08 1350.88,-1550.56 1480.02,-1550.56 1480.02,-1298.08 1350.88,-1298.08"/>
<text text-anchor="middle" x="1415.45" y="-1540.16" font-family="Helvetica,Arial,sans-serif" font-size="8.00" fill="#0e6b5a">TB&#45;4b &#160;RFC 865 QuoteService</text>
<text text-anchor="middle" x="1415.45" y="-1531.16" font-family="Helvetica,Arial,sans-serif" font-size="8.00" fill="#0e6b5a">(loopback 127.0.0.1 default)</text>
</g>
<g id="clust7" class="cluster">
<title>cluster_tb4c</title>
<polygon fill="#f8f8f8" stroke="#999999" stroke-width="1.3" points="1118.93,-900.15 1118.93,-1089.51 1699.94,-1089.51 1699.94,-900.15 1118.93,-900.15"/>
<text text-anchor="middle" x="1409.44" y="-1079.11" font-family="Helvetica,Arial,sans-serif" font-size="8.00" fill="#0e6b5a">TB&#45;4c &#160;Local Telemetry</text>
</g>
<g id="clust8" class="cluster">
<title>cluster_tb5</title>
<polygon fill="#fffbf0" stroke="#996600" stroke-width="2" stroke-dasharray="5,2" points="1123.22,-543.38 1123.22,-856.24 1228.22,-856.24 1228.22,-543.38 1123.22,-543.38"/>
<text text-anchor="middle" x="1175.72" y="-845.04" font-family="Helvetica,Arial,sans-serif" font-size="9.00" fill="#996600">TB&#45;5 &#160;Secrets / Config</text>
<text text-anchor="middle" x="1175.72" y="-835.04" font-family="Helvetica,Arial,sans-serif" font-size="9.00" fill="#996600">(gitignored)</text>
</g>
<!-- http_client -->
<g id="node1" class="node">
<title>http_client</title>
<polygon fill="#ffffff" stroke="#444466" stroke-width="1.4" points="328.44,-846.57 259.44,-846.57 259.44,-810.57 328.44,-810.57 328.44,-846.57"/>
<polygon fill="none" stroke="#444466" stroke-width="1.4" points="332.44,-850.57 255.44,-850.57 255.44,-806.57 332.44,-806.57 332.44,-850.57"/>
<text text-anchor="middle" x="293.94" y="-835.67" font-family="Helvetica,Arial,sans-serif" font-size="8.00" fill="#111111">HTTP Client</text>
<text text-anchor="middle" x="293.94" y="-826.67" font-family="Helvetica,Arial,sans-serif" font-size="8.00" fill="#111111">(Browser / curl)</text>
<text text-anchor="middle" x="293.94" y="-817.67" font-family="Helvetica,Arial,sans-serif" font-size="8.00" fill="#111111">EP&#45;13, EP&#45;14</text>
</g>
<!-- ci_runner -->
<g id="node5" class="node">
<title>ci_runner</title>
<ellipse fill="#dbeafe" stroke="#1d4ed8" stroke-width="1.6" cx="525.94" cy="-400.57" rx="47.25" ry="18.27"/>
<text text-anchor="middle" x="525.94" y="-403.17" font-family="Helvetica,Arial,sans-serif" font-size="8.00" fill="#111111">CI Runner</text>
<text text-anchor="middle" x="525.94" y="-394.17" font-family="Helvetica,Arial,sans-serif" font-size="8.00" fill="#111111">(ubuntu&#45;latest)</text>
</g>
<!-- http_client&#45;&gt;ci_runner -->
<!-- worker -->
<g id="node8" class="node">
<title>worker</title>
<ellipse fill="#dbeafe" stroke="#1d4ed8" stroke-width="1.6" cx="684.94" cy="-400.57" rx="30.31" ry="18.27"/>
<text text-anchor="middle" x="684.94" y="-403.17" font-family="Helvetica,Arial,sans-serif" font-size="8.00" fill="#111111">Worker</text>
<text text-anchor="middle" x="684.94" y="-394.17" font-family="Helvetica,Arial,sans-serif" font-size="8.00" fill="#111111">entry.py</text>
</g>
<!-- http_client&#45;&gt;worker -->
<g id="edge5" class="edge">
<title>http_client&#45;&gt;worker</title>
<path fill="none" stroke="#cc2222" stroke-width="1.9" d="M332.59,-821.11C398.62,-806.03 535.22,-765.57 608.44,-677.57 671.55,-601.73 682.2,-477.55 683.79,-425.14"/>
<polygon fill="#cc2222" stroke="#cc2222" stroke-width="1.9" points="685.89,-425.16 683.94,-419.11 681.69,-425.06 685.89,-425.16"/>
<text text-anchor="middle" x="525.94" y="-770.57" font-family="Helvetica,Arial,sans-serif" font-size="7.50" fill="#cc2222"> HTTPS /?name= </text>
</g>
<!-- tcp_udp_client -->
<g id="node2" class="node">
<title>tcp_udp_client</title>
<polygon fill="#ffffff" stroke="#444466" stroke-width="1.4" points="329.94,-1022.57 257.94,-1022.57 257.94,-986.57 329.94,-986.57 329.94,-1022.57"/>
<polygon fill="none" stroke="#444466" stroke-width="1.4" points="333.94,-1026.57 253.94,-1026.57 253.94,-982.57 333.94,-982.57 333.94,-1026.57"/>
<text text-anchor="middle" x="293.94" y="-1011.67" font-family="Helvetica,Arial,sans-serif" font-size="8.00" fill="#111111">TCP/UDP Client</text>
<text text-anchor="middle" x="293.94" y="-1002.67" font-family="Helvetica,Arial,sans-serif" font-size="8.00" fill="#111111">(RFC 865)</text>
<text text-anchor="middle" x="293.94" y="-993.67" font-family="Helvetica,Arial,sans-serif" font-size="8.00" fill="#111111">EP&#45;8, EP&#45;9</text>
</g>
<!-- quote_svc -->
<g id="node17" class="node">
<title>quote_svc</title>
<ellipse fill="#dbeafe" stroke="#1d4ed8" stroke-width="1.6" cx="1415.94" cy="-1388.57" rx="56.64" ry="25"/>
<text text-anchor="middle" x="1415.94" y="-1395.67" font-family="Helvetica,Arial,sans-serif" font-size="8.00" fill="#111111">QuoteService</text>
<text text-anchor="middle" x="1415.94" y="-1386.67" font-family="Helvetica,Arial,sans-serif" font-size="8.00" fill="#111111">quote_service.py</text>
<text text-anchor="middle" x="1415.94" y="-1377.67" font-family="Helvetica,Arial,sans-serif" font-size="8.00" fill="#111111">TCP+UDP port 17</text>
</g>
<!-- tcp_udp_client&#45;&gt;quote_svc -->
<g id="edge11" class="edge">
<title>tcp_udp_client&#45;&gt;quote_svc</title>
<path fill="none" stroke="#cc2222" stroke-width="1.4" stroke-dasharray="5,2" d="M298.44,-1026.92C316.04,-1135.48 399.11,-1602.57 524.94,-1602.57 524.94,-1602.57 524.94,-1602.57 1176.94,-1602.57 1285.95,-1602.57 1367.65,-1476.91 1399.88,-1418.17"/>
<polygon fill="#cc2222" stroke="#cc2222" stroke-width="1.4" points="1401.83,-1418.98 1402.84,-1412.7 1398.14,-1416.98 1401.83,-1418.98"/>
<text text-anchor="middle" x="798.94" y="-1612.57" font-family="Helvetica,Arial,sans-serif" font-size="7.50" fill="#cc2222"> TCP/UDP</text>
<text text-anchor="middle" x="798.94" y="-1604.57" font-family="Helvetica,Arial,sans-serif" font-size="7.50" fill="#cc2222">⚠ if not loopback </text>
</g>
<!-- pypi -->
<g id="node3" class="node">
<title>pypi</title>
<polygon fill="#ffffff" stroke="#444466" stroke-width="1.4" points="325.44,-671.57 262.44,-671.57 262.44,-635.57 325.44,-635.57 325.44,-671.57"/>
<polygon fill="none" stroke="#444466" stroke-width="1.4" points="329.44,-675.57 258.44,-675.57 258.44,-631.57 329.44,-631.57 329.44,-675.57"/>
<text text-anchor="middle" x="293.94" y="-656.17" font-family="Helvetica,Arial,sans-serif" font-size="8.00" fill="#111111">PyPI Registry</text>
<text text-anchor="middle" x="293.94" y="-647.17" font-family="Helvetica,Arial,sans-serif" font-size="8.00" fill="#111111">EP&#45;4</text>
</g>
<!-- pip_install -->
<g id="node6" class="node">
<title>pip_install</title>
<ellipse fill="#dbeafe" stroke="#1d4ed8" stroke-width="1.6" cx="67.94" cy="-252.57" rx="51.74" ry="18.27"/>
<text text-anchor="middle" x="67.94" y="-255.17" font-family="Helvetica,Arial,sans-serif" font-size="8.00" fill="#111111">pip install</text>
<text text-anchor="middle" x="67.94" y="-246.17" font-family="Helvetica,Arial,sans-serif" font-size="8.00" fill="#111111">&#45;&#45;require&#45;hashes</text>
</g>
<!-- pypi&#45;&gt;pip_install -->
<g id="edge13" class="edge">
<title>pypi&#45;&gt;pip_install</title>
<path fill="none" stroke="#cc6600" stroke-width="1.6" d="M280.5,-631.29C241.47,-561.43 121.73,-347.07 81.94,-275.85"/>
<polygon fill="#cc6600" stroke="#cc6600" stroke-width="1.6" points="83.76,-274.79 79,-270.58 80.09,-276.84 83.76,-274.79"/>
<text text-anchor="middle" x="182.94" y="-502.57" font-family="Helvetica,Arial,sans-serif" font-size="7.50" fill="#cc6600"> packages &#160;EP&#45;4 </text>
</g>
<!-- gh_action_code -->
<g id="node4" class="node">
<title>gh_action_code</title>
<polygon fill="#ffffff" stroke="#444466" stroke-width="1.4" points="329.94,-407.57 257.94,-407.57 257.94,-371.57 329.94,-371.57 329.94,-407.57"/>
<polygon fill="none" stroke="#444466" stroke-width="1.4" points="333.94,-411.57 253.94,-411.57 253.94,-367.57 333.94,-367.57 333.94,-411.57"/>
<text text-anchor="middle" x="293.94" y="-396.67" font-family="Helvetica,Arial,sans-serif" font-size="8.00" fill="#111111">3rd&#45;party Action</text>
<text text-anchor="middle" x="293.94" y="-387.67" font-family="Helvetica,Arial,sans-serif" font-size="8.00" fill="#111111">code &#160;EP&#45;6</text>
<text text-anchor="middle" x="293.94" y="-378.67" font-family="Helvetica,Arial,sans-serif" font-size="8.00" fill="#111111">(SHA&#45;pinned)</text>
</g>
<!-- gh_action_code&#45;&gt;ci_runner -->
<g id="edge14" class="edge">
<title>gh_action_code&#45;&gt;ci_runner</title>
<path fill="none" stroke="#cc6600" stroke-width="1.6" d="M333.96,-391.44C372.07,-393.26 430.34,-396.05 472.49,-398.06"/>
<polygon fill="#cc6600" stroke="#cc6600" stroke-width="1.6" points="472.49,-400.16 478.59,-398.35 472.69,-395.97 472.49,-400.16"/>
<text text-anchor="middle" x="410.94" y="-398.57" font-family="Helvetica,Arial,sans-serif" font-size="7.50" fill="#cc6600"> action code &#160;EP&#45;6 </text>
</g>
<!-- ci_runner&#45;&gt;worker -->
<!-- pip_install&#45;&gt;ci_runner -->
<g id="edge15" class="edge">
<title>pip_install&#45;&gt;ci_runner</title>
<path fill="none" stroke="#166534" stroke-width="1.2" d="M106.64,-264.81C191.12,-292.23 395.06,-358.42 483.2,-387.02"/>
<polygon fill="#166534" stroke="#166534" stroke-width="1.2" points="482.74,-389.08 489.09,-388.94 484.03,-385.09 482.74,-389.08"/>
<text text-anchor="middle" x="293.94" y="-345.57" font-family="Helvetica,Arial,sans-serif" font-size="7.50" fill="#166534"> installed deps </text>
</g>
<!-- pip_audit -->
<g id="node7" class="node">
<title>pip_audit</title>
<ellipse fill="#dbeafe" stroke="#1d4ed8" stroke-width="1.6" cx="293.94" cy="-93.57" rx="38.78" ry="18.27"/>
<text text-anchor="middle" x="293.94" y="-96.17" font-family="Helvetica,Arial,sans-serif" font-size="8.00" fill="#111111">pip&#45;audit</text>
<text text-anchor="middle" x="293.94" y="-87.17" font-family="Helvetica,Arial,sans-serif" font-size="8.00" fill="#111111">(CVE scan)</text>
</g>
<!-- pip_install&#45;&gt;pip_audit -->
<g id="edge16" class="edge">
<title>pip_install&#45;&gt;pip_audit</title>
<path fill="none" stroke="#166534" stroke-width="1.2" d="M92.07,-236.15C134.05,-206.36 222.51,-143.57 266.68,-112.21"/>
<polygon fill="#166534" stroke="#166534" stroke-width="1.2" points="267.91,-113.91 271.59,-108.73 265.48,-110.49 267.91,-113.91"/>
<text text-anchor="middle" x="182.94" y="-194.57" font-family="Helvetica,Arial,sans-serif" font-size="7.50" fill="#166534"> dep list </text>
</g>
<!-- pip_audit&#45;&gt;ci_runner -->
<g id="edge17" class="edge">
<title>pip_audit&#45;&gt;ci_runner</title>
<path fill="none" stroke="#166534" stroke-width="1.2" stroke-dasharray="5,2" d="M314.96,-109.18C345.78,-134 405.41,-185.14 444.44,-238.57 477.14,-283.33 503.02,-343.39 515.94,-376.36"/>
<polygon fill="#166534" stroke="#166534" stroke-width="1.2" points="514.07,-377.36 518.19,-382.19 517.99,-375.84 514.07,-377.36"/>
<text text-anchor="middle" x="410.94" y="-240.57" font-family="Helvetica,Arial,sans-serif" font-size="7.50" fill="#166534"> CVE report </text>
</g>
<!-- _sink -->
<!-- pip_audit&#45;&gt;_sink -->
<!-- worker&#45;&gt;http_client -->
<g id="edge6" class="edge">
<title>worker&#45;&gt;http_client</title>
<path fill="none" stroke="#1e40af" stroke-width="1.2" stroke-dasharray="5,2" d="M673.97,-417.94C656.8,-447.24 619.77,-507.76 581.32,-553.57 497.65,-653.25 381.63,-755.48 326.48,-802.28"/>
<polygon fill="#1e40af" stroke="#1e40af" stroke-width="1.2" points="324.88,-800.88 321.66,-806.36 327.6,-804.09 324.88,-800.88"/>
<text text-anchor="middle" x="525.94" y="-663.57" font-family="Helvetica,Arial,sans-serif" font-size="7.50" fill="#1e40af"> JSON / HTML </text>
</g>
<!-- cf_telemetry -->
<g id="node9" class="node">
<title>cf_telemetry</title>
<ellipse fill="#dbeafe" stroke="#1d4ed8" stroke-width="1.6" cx="918.94" cy="-351.57" rx="48.58" ry="18.27"/>
<text text-anchor="middle" x="918.94" y="-354.17" font-family="Helvetica,Arial,sans-serif" font-size="8.00" fill="#111111">CfTelemetry</text>
<text text-anchor="middle" x="918.94" y="-345.17" font-family="Helvetica,Arial,sans-serif" font-size="8.00" fill="#111111">cf_telemetry.py</text>
</g>
<!-- worker&#45;&gt;cf_telemetry -->
<g id="edge7" class="edge">
<title>worker&#45;&gt;cf_telemetry</title>
<path fill="none" stroke="#166534" stroke-width="1.2" d="M713.92,-394.66C752.64,-386.48 823.09,-371.6 870.21,-361.65"/>
<polygon fill="#166534" stroke="#166534" stroke-width="1.2" points="870.69,-363.7 876.13,-360.4 869.82,-359.59 870.69,-363.7"/>
<text text-anchor="middle" x="798.94" y="-384.57" font-family="Helvetica,Arial,sans-serif" font-size="7.50" fill="#166534"> record() </text>
</g>
<!-- greeting -->
<g id="node14" class="node">
<title>greeting</title>
<ellipse fill="#dbeafe" stroke="#1d4ed8" stroke-width="1.6" cx="918.94" cy="-1182.57" rx="38.37" ry="18.27"/>
<text text-anchor="middle" x="918.94" y="-1185.17" font-family="Helvetica,Arial,sans-serif" font-size="8.00" fill="#111111">Greeting</text>
<text text-anchor="middle" x="918.94" y="-1176.17" font-family="Helvetica,Arial,sans-serif" font-size="8.00" fill="#111111">greeting.py</text>
</g>
<!-- worker&#45;&gt;greeting -->
<!-- cf_telemetry&#45;&gt;worker -->
<g id="edge10" class="edge">
<title>cf_telemetry&#45;&gt;worker</title>
<path fill="none" stroke="#166534" stroke-width="1.2" stroke-dasharray="5,2" d="M894.77,-367.75C878.97,-377.8 857.16,-389.86 835.94,-395.57 797.77,-405.84 752.16,-405.7 721.34,-403.87"/>
<polygon fill="#166534" stroke="#166534" stroke-width="1.2" points="721.11,-401.75 714.99,-403.46 720.84,-405.94 721.11,-401.75"/>
<text text-anchor="middle" x="798.94" y="-406.57" font-family="Helvetica,Arial,sans-serif" font-size="7.50" fill="#166534"> stats result </text>
</g>
<!-- d1_db -->
<g id="node10" class="node">
<title>d1_db</title>
<path fill="#ede9fe" stroke="#5b21b6" stroke-width="1.6" d="M1213.44,-415.3C1213.44,-417.1 1196.63,-418.57 1175.94,-418.57 1155.25,-418.57 1138.44,-417.1 1138.44,-415.3 1138.44,-415.3 1138.44,-385.84 1138.44,-385.84 1138.44,-384.04 1155.25,-382.57 1175.94,-382.57 1196.63,-382.57 1213.44,-384.04 1213.44,-385.84 1213.44,-385.84 1213.44,-415.3 1213.44,-415.3"/>
<path fill="none" stroke="#5b21b6" stroke-width="1.6" d="M1213.44,-415.3C1213.44,-413.49 1196.63,-412.02 1175.94,-412.02 1155.25,-412.02 1138.44,-413.49 1138.44,-415.3"/>
<text text-anchor="middle" x="1175.94" y="-403.17" font-family="Helvetica,Arial,sans-serif" font-size="8.00" fill="#111111">D1 Database</text>
<text text-anchor="middle" x="1175.94" y="-394.17" font-family="Helvetica,Arial,sans-serif" font-size="8.00" fill="#111111">(cloud telemetry)</text>
</g>
<!-- cf_telemetry&#45;&gt;d1_db -->
<g id="edge8" class="edge">
<title>cf_telemetry&#45;&gt;d1_db</title>
<path fill="none" stroke="#166534" stroke-width="1.2" d="M962.62,-359.77C1009.71,-368.82 1085.03,-383.29 1132.16,-392.35"/>
<polygon fill="#166534" stroke="#166534" stroke-width="1.2" points="1132.04,-394.47 1138.33,-393.54 1132.83,-390.34 1132.04,-394.47"/>
<text text-anchor="middle" x="1043.94" y="-384.57" font-family="Helvetica,Arial,sans-serif" font-size="7.50" fill="#166534"> D1 INSERT </text>
</g>
<!-- d1_db&#45;&gt;cf_telemetry -->
<g id="edge9" class="edge">
<title>d1_db&#45;&gt;cf_telemetry</title>
<path fill="none" stroke="#166534" stroke-width="1.2" stroke-dasharray="5,2" d="M1138.35,-404.35C1102.74,-406.91 1047.43,-407.9 1001.44,-395.57 982.63,-390.53 963.37,-380.41 948.3,-371.14"/>
<polygon fill="#166534" stroke="#166534" stroke-width="1.2" points="949.15,-369.19 942.95,-367.78 946.91,-372.75 949.15,-369.19"/>
<text text-anchor="middle" x="1043.94" y="-407.57" font-family="Helvetica,Arial,sans-serif" font-size="7.50" fill="#166534"> D1 SELECT </text>
</g>
<!-- d1_db&#45;&gt;_sink -->
<!-- caller -->
<g id="node11" class="node">
<title>caller</title>
<polygon fill="#ffffff" stroke="#444466" stroke-width="1.4" points="723.94,-1288.57 645.94,-1288.57 645.94,-1252.57 723.94,-1252.57 723.94,-1288.57"/>
<polygon fill="none" stroke="#444466" stroke-width="1.4" points="727.94,-1292.57 641.94,-1292.57 641.94,-1248.57 727.94,-1248.57 727.94,-1292.57"/>
<text text-anchor="middle" x="684.94" y="-1273.17" font-family="Helvetica,Arial,sans-serif" font-size="8.00" fill="#111111">__main__ / Caller</text>
<text text-anchor="middle" x="684.94" y="-1264.17" font-family="Helvetica,Arial,sans-serif" font-size="8.00" fill="#111111">EP&#45;1, EP&#45;2</text>
</g>
<!-- caller&#45;&gt;greeting -->
<g id="edge18" class="edge">
<title>caller&#45;&gt;greeting</title>
<path fill="none" stroke="#cc2222" stroke-width="1.2" d="M727.95,-1254.63C772.23,-1237.84 841.18,-1211.69 882.71,-1195.93"/>
<polygon fill="#cc2222" stroke="#cc2222" stroke-width="1.2" points="883.51,-1197.87 888.38,-1193.78 882.02,-1193.95 883.51,-1197.87"/>
<text text-anchor="middle" x="798.94" y="-1241.57" font-family="Helvetica,Arial,sans-serif" font-size="7.50" fill="#cc2222"> name: str &#160;EP&#45;1,2 </text>
</g>
<!-- os_clock -->
<g id="node12" class="node">
<title>os_clock</title>
<polygon fill="#ffffff" stroke="#444466" stroke-width="1.4" points="716.44,-1112.57 653.44,-1112.57 653.44,-1076.57 716.44,-1076.57 716.44,-1112.57"/>
<polygon fill="none" stroke="#444466" stroke-width="1.4" points="720.44,-1116.57 649.44,-1116.57 649.44,-1072.57 720.44,-1072.57 720.44,-1116.57"/>
<text text-anchor="middle" x="684.94" y="-1097.17" font-family="Helvetica,Arial,sans-serif" font-size="8.00" fill="#111111">System Clock</text>
<text text-anchor="middle" x="684.94" y="-1088.17" font-family="Helvetica,Arial,sans-serif" font-size="8.00" fill="#111111">EP&#45;3</text>
</g>
<!-- os_clock&#45;&gt;greeting -->
<g id="edge19" class="edge">
<title>os_clock&#45;&gt;greeting</title>
<path fill="none" stroke="#166534" stroke-width="1.2" d="M720.67,-1107.74C764.35,-1124.31 838.9,-1152.59 882.78,-1169.23"/>
<polygon fill="#166534" stroke="#166534" stroke-width="1.2" points="882.14,-1171.24 888.49,-1171.4 883.63,-1167.31 882.14,-1171.24"/>
<text text-anchor="middle" x="798.94" y="-1150.57" font-family="Helvetica,Arial,sans-serif" font-size="7.50" fill="#166534"> datetime.now() &#160;EP&#45;3 </text>
</g>
<!-- terminal -->
<g id="node13" class="node">
<title>terminal</title>
<polygon fill="#ffffff" stroke="#444466" stroke-width="1.4" points="1867.94,-983.57 1813.94,-983.57 1813.94,-947.57 1867.94,-947.57 1867.94,-983.57"/>
<polygon fill="none" stroke="#444466" stroke-width="1.4" points="1871.94,-987.57 1809.94,-987.57 1809.94,-943.57 1871.94,-943.57 1871.94,-987.57"/>
<text text-anchor="middle" x="1840.94" y="-968.17" font-family="Helvetica,Arial,sans-serif" font-size="8.00" fill="#111111">Terminal</text>
<text text-anchor="middle" x="1840.94" y="-959.17" font-family="Helvetica,Arial,sans-serif" font-size="8.00" fill="#111111">(stdout)</text>
</g>
<!-- terminal&#45;&gt;_sink -->
<!-- greeting&#45;&gt;terminal -->
<g id="edge24" class="edge">
<title>greeting&#45;&gt;terminal</title>
<path fill="none" stroke="#1e40af" stroke-width="1.2" d="M956.62,-1186.2C1072.11,-1196.04 1436.19,-1215 1699.9,-1094.57 1750.56,-1071.44 1795.2,-1022.88 1819.79,-992.38"/>
<polygon fill="#1e40af" stroke="#1e40af" stroke-width="1.2" points="1821.47,-993.65 1823.57,-987.65 1818.19,-991.03 1821.47,-993.65"/>
<text text-anchor="middle" x="1415.94" y="-1183.57" font-family="Helvetica,Arial,sans-serif" font-size="7.50" fill="#1e40af"> greeting + quote </text>
</g>
<!-- time_of_day -->
<g id="node15" class="node">
<title>time_of_day</title>
<ellipse fill="#dbeafe" stroke="#1d4ed8" stroke-width="1.6" cx="1175.94" cy="-1237.57" rx="48.58" ry="18.27"/>
<text text-anchor="middle" x="1175.94" y="-1240.17" font-family="Helvetica,Arial,sans-serif" font-size="8.00" fill="#111111">TimeOfDay</text>
<text text-anchor="middle" x="1175.94" y="-1231.17" font-family="Helvetica,Arial,sans-serif" font-size="8.00" fill="#111111">time_of_day.py</text>
</g>
<!-- greeting&#45;&gt;time_of_day -->
<g id="edge20" class="edge">
<title>greeting&#45;&gt;time_of_day</title>
<path fill="none" stroke="#166534" stroke-width="1.2" d="M954.07,-1189.93C998.54,-1199.52 1076.55,-1216.35 1126.96,-1227.22"/>
<polygon fill="#166534" stroke="#166534" stroke-width="1.2" points="1126.66,-1229.31 1132.97,-1228.52 1127.55,-1225.2 1126.66,-1229.31"/>
<text text-anchor="middle" x="1043.94" y="-1219.57" font-family="Helvetica,Arial,sans-serif" font-size="7.50" fill="#166534"> hour: int </text>
</g>
<!-- quote_prov -->
<g id="node16" class="node">
<title>quote_prov</title>
<ellipse fill="#dbeafe" stroke="#1d4ed8" stroke-width="1.6" cx="1175.94" cy="-1396.57" rx="55.31" ry="18.27"/>
<text text-anchor="middle" x="1175.94" y="-1399.17" font-family="Helvetica,Arial,sans-serif" font-size="8.00" fill="#111111">QuoteProvider</text>
<text text-anchor="middle" x="1175.94" y="-1390.17" font-family="Helvetica,Arial,sans-serif" font-size="8.00" fill="#111111">quote_provider.py</text>
</g>
<!-- greeting&#45;&gt;quote_prov -->
<g id="edge22" class="edge">
<title>greeting&#45;&gt;quote_prov</title>
<path fill="none" stroke="#166534" stroke-width="1.2" d="M937.9,-1198.78C954.3,-1213.51 979.29,-1235.73 1001.44,-1254.57 1053.02,-1298.43 1114.61,-1348.25 1148.79,-1375.68"/>
<polygon fill="#166534" stroke="#166534" stroke-width="1.2" points="1147.63,-1377.44 1153.63,-1379.56 1150.26,-1374.16 1147.63,-1377.44"/>
<text text-anchor="middle" x="1043.94" y="-1326.57" font-family="Helvetica,Arial,sans-serif" font-size="7.50" fill="#166534"> get() </text>
</g>
<!-- telemetry -->
<g id="node18" class="node">
<title>telemetry</title>
<ellipse fill="#dbeafe" stroke="#1d4ed8" stroke-width="1.6" cx="1175.94" cy="-971.57" rx="48.58" ry="18.27"/>
<text text-anchor="middle" x="1175.94" y="-974.17" font-family="Helvetica,Arial,sans-serif" font-size="8.00" fill="#111111">TelemetryStore</text>
<text text-anchor="middle" x="1175.94" y="-965.17" font-family="Helvetica,Arial,sans-serif" font-size="8.00" fill="#111111">telemetry.py</text>
</g>
<!-- greeting&#45;&gt;telemetry -->
<g id="edge25" class="edge">
<title>greeting&#45;&gt;telemetry</title>
<path fill="none" stroke="#166534" stroke-width="1.2" d="M924.71,-1164.28C934.02,-1132.16 957.62,-1065.53 1001.44,-1028.57 1035.8,-999.58 1085.33,-985.22 1122.68,-978.17"/>
<polygon fill="#166534" stroke="#166534" stroke-width="1.2" points="1123.5,-980.16 1129.03,-977.02 1122.75,-976.03 1123.5,-980.16"/>
<text text-anchor="middle" x="1043.94" y="-1030.57" font-family="Helvetica,Arial,sans-serif" font-size="7.50" fill="#166534"> duration_ns, error_msg </text>
</g>
<!-- wrangler_cfg -->
<g id="node22" class="node">
<title>wrangler_cfg</title>
<path fill="#ede9fe" stroke="#5b21b6" stroke-width="1.6" d="M1216.44,-651.31C1216.44,-653.73 1198.29,-655.7 1175.94,-655.7 1153.59,-655.7 1135.44,-653.73 1135.44,-651.31 1135.44,-651.31 1135.44,-611.83 1135.44,-611.83 1135.44,-609.41 1153.59,-607.45 1175.94,-607.45 1198.29,-607.45 1216.44,-609.41 1216.44,-611.83 1216.44,-611.83 1216.44,-651.31 1216.44,-651.31"/>
<path fill="none" stroke="#5b21b6" stroke-width="1.6" d="M1216.44,-651.31C1216.44,-648.89 1198.29,-646.92 1175.94,-646.92 1153.59,-646.92 1135.44,-648.89 1135.44,-651.31"/>
<text text-anchor="middle" x="1175.94" y="-638.67" font-family="Helvetica,Arial,sans-serif" font-size="8.00" fill="#111111">wrangler.local.toml</text>
<text text-anchor="middle" x="1175.94" y="-629.67" font-family="Helvetica,Arial,sans-serif" font-size="8.00" fill="#111111">CF API token</text>
<text text-anchor="middle" x="1175.94" y="-620.67" font-family="Helvetica,Arial,sans-serif" font-size="8.00" fill="#111111">D1 database_id</text>
</g>
<!-- greeting&#45;&gt;wrangler_cfg -->
<!-- time_of_day&#45;&gt;greeting -->
<g id="edge21" class="edge">
<title>time_of_day&#45;&gt;greeting</title>
<path fill="none" stroke="#166534" stroke-width="1.2" stroke-dasharray="5,2" d="M1128.28,-1241.76C1092.77,-1243.51 1043.08,-1242.83 1001.44,-1230.57 980.92,-1224.53 960.18,-1212.21 944.76,-1201.56"/>
<polygon fill="#166534" stroke="#166534" stroke-width="1.2" points="945.85,-1199.76 939.74,-1198.02 943.43,-1203.2 945.85,-1199.76"/>
<text text-anchor="middle" x="1043.94" y="-1243.57" font-family="Helvetica,Arial,sans-serif" font-size="7.50" fill="#166534"> TimeOfDay enum </text>
</g>
<!-- quote_prov&#45;&gt;greeting -->
<g id="edge23" class="edge">
<title>quote_prov&#45;&gt;greeting</title>
<path fill="none" stroke="#166534" stroke-width="1.2" stroke-dasharray="5,2" d="M1124.37,-1389.67C1086.81,-1382.29 1036.27,-1367.34 1001.44,-1337.57 960.21,-1302.33 936.87,-1240.93 926.5,-1206.95"/>
<polygon fill="#166534" stroke="#166534" stroke-width="1.2" points="928.44,-1206.09 924.72,-1200.94 924.41,-1207.29 928.44,-1206.09"/>
<text text-anchor="middle" x="1043.94" y="-1381.57" font-family="Helvetica,Arial,sans-serif" font-size="7.50" fill="#166534"> quote: str </text>
</g>
<!-- quote_prov&#45;&gt;quote_svc -->
<g id="edge30" class="edge">
<title>quote_prov&#45;&gt;quote_svc</title>
<path fill="none" stroke="#166534" stroke-width="1.2" stroke-dasharray="5,2" d="M1220.99,-1385.75C1234.95,-1382.81 1250.51,-1380.03 1264.94,-1378.57 1294.88,-1375.54 1328.27,-1377.27 1355.93,-1380.08"/>
<polygon fill="#166534" stroke="#166534" stroke-width="1.2" points="1355.92,-1382.19 1362.11,-1380.74 1356.36,-1378.01 1355.92,-1382.19"/>
<text text-anchor="middle" x="1294.94" y="-1380.57" font-family="Helvetica,Arial,sans-serif" font-size="7.50" fill="#166534"> quote: str </text>
</g>
<!-- quote_svc&#45;&gt;tcp_udp_client -->
<g id="edge12" class="edge">
<title>quote_svc&#45;&gt;tcp_udp_client</title>
<path fill="none" stroke="#1e40af" stroke-width="1.2" stroke-dasharray="5,2" d="M1409.76,-1413.3C1392.15,-1489.81 1327.1,-1717.57 1176.94,-1717.57 524.94,-1717.57 524.94,-1717.57 524.94,-1717.57 378.49,-1717.57 311.72,-1165.82 297.77,-1033.05"/>
<polygon fill="#1e40af" stroke="#1e40af" stroke-width="1.2" points="299.82,-1032.44 297.11,-1026.69 295.64,-1032.88 299.82,-1032.44"/>
<text text-anchor="middle" x="798.94" y="-1719.57" font-family="Helvetica,Arial,sans-serif" font-size="7.50" fill="#1e40af"> quote bytes </text>
</g>
<!-- quote_svc&#45;&gt;quote_prov -->
<g id="edge29" class="edge">
<title>quote_svc&#45;&gt;quote_prov</title>
<path fill="none" stroke="#166534" stroke-width="1.2" d="M1359.5,-1390.43C1322.89,-1391.66 1274.93,-1393.28 1237.36,-1394.54"/>
<polygon fill="#166534" stroke="#166534" stroke-width="1.2" points="1236.87,-1392.45 1230.95,-1394.76 1237.01,-1396.65 1236.87,-1392.45"/>
<text text-anchor="middle" x="1294.94" y="-1394.57" font-family="Helvetica,Arial,sans-serif" font-size="7.50" fill="#166534"> get() </text>
</g>
<!-- sqlite_db -->
<g id="node20" class="node">
<title>sqlite_db</title>
<path fill="#ede9fe" stroke="#5b21b6" stroke-width="1.6" d="M1461.94,-986.3C1461.94,-988.1 1441.32,-989.57 1415.94,-989.57 1390.56,-989.57 1369.94,-988.1 1369.94,-986.3 1369.94,-986.3 1369.94,-956.84 1369.94,-956.84 1369.94,-955.04 1390.56,-953.57 1415.94,-953.57 1441.32,-953.57 1461.94,-955.04 1461.94,-956.84 1461.94,-956.84 1461.94,-986.3 1461.94,-986.3"/>
<path fill="none" stroke="#5b21b6" stroke-width="1.6" d="M1461.94,-986.3C1461.94,-984.49 1441.32,-983.02 1415.94,-983.02 1390.56,-983.02 1369.94,-984.49 1369.94,-986.3"/>
<text text-anchor="middle" x="1415.94" y="-974.17" font-family="Helvetica,Arial,sans-serif" font-size="8.00" fill="#111111">SQLite</text>
<text text-anchor="middle" x="1415.94" y="-965.17" font-family="Helvetica,Arial,sans-serif" font-size="8.00" fill="#111111">greeting_telemetry.db</text>
</g>
<!-- telemetry&#45;&gt;sqlite_db -->
<g id="edge26" class="edge">
<title>telemetry&#45;&gt;sqlite_db</title>
<path fill="none" stroke="#166534" stroke-width="1.2" d="M1224.82,-971.57C1264.97,-971.57 1322.19,-971.57 1363.35,-971.57"/>
<polygon fill="#166534" stroke="#166534" stroke-width="1.2" points="1363.56,-973.67 1369.56,-971.57 1363.56,-969.47 1363.56,-973.67"/>
<text text-anchor="middle" x="1294.94" y="-973.57" font-family="Helvetica,Arial,sans-serif" font-size="7.50" fill="#166534"> INSERT (async) </text>
</g>
<!-- stats -->
<g id="node19" class="node">
<title>stats</title>
<ellipse fill="#dbeafe" stroke="#1d4ed8" stroke-width="1.6" cx="1645.94" cy="-971.57" rx="45.92" ry="18.27"/>
<text text-anchor="middle" x="1645.94" y="-974.17" font-family="Helvetica,Arial,sans-serif" font-size="8.00" fill="#111111">StatsReporter</text>
<text text-anchor="middle" x="1645.94" y="-965.17" font-family="Helvetica,Arial,sans-serif" font-size="8.00" fill="#111111">stats.py</text>
</g>
<!-- stats&#45;&gt;terminal -->
<g id="edge28" class="edge">
<title>stats&#45;&gt;terminal</title>
<path fill="none" stroke="#1e40af" stroke-width="1.2" stroke-dasharray="5,2" d="M1692.19,-970.16C1726.14,-969.11 1772,-967.68 1803.58,-966.7"/>
<polygon fill="#1e40af" stroke="#1e40af" stroke-width="1.2" points="1803.77,-968.8 1809.7,-966.51 1803.64,-964.6 1803.77,-968.8"/>
<text text-anchor="middle" x="1750.94" y="-970.57" font-family="Helvetica,Arial,sans-serif" font-size="7.50" fill="#1e40af"> p50/p95/p99 </text>
</g>
<!-- sqlite_db&#45;&gt;stats -->
<g id="edge27" class="edge">
<title>sqlite_db&#45;&gt;stats</title>
<path fill="none" stroke="#166534" stroke-width="1.2" stroke-dasharray="5,2" d="M1461.99,-971.57C1499.8,-971.57 1553.84,-971.57 1593.38,-971.57"/>
<polygon fill="#166534" stroke="#166534" stroke-width="1.2" points="1593.6,-973.67 1599.6,-971.57 1593.6,-969.47 1593.6,-973.67"/>
<text text-anchor="middle" x="1535.94" y="-973.57" font-family="Helvetica,Arial,sans-serif" font-size="7.50" fill="#166534"> SELECT metrics </text>
</g>
<!-- sqlite_db&#45;&gt;_sink -->
<!-- _tb5_pad -->
<!-- wrangler_cfg&#45;&gt;worker -->
<g id="edge31" class="edge">
<title>wrangler_cfg&#45;&gt;worker</title>
<path fill="none" stroke="#92400e" stroke-width="1.4" stroke-dasharray="5,2" d="M1135.13,-612.76C1039.59,-567.63 799.09,-454.02 715.28,-414.43"/>
<polygon fill="#92400e" stroke="#92400e" stroke-width="1.4" points="715.85,-412.38 709.53,-411.71 714.05,-416.17 715.85,-412.38"/>
<text text-anchor="middle" x="918.94" y="-540.57" font-family="Helvetica,Arial,sans-serif" font-size="7.50" fill="#92400e"> CF token</text>
<text text-anchor="middle" x="918.94" y="-532.57" font-family="Helvetica,Arial,sans-serif" font-size="7.50" fill="#92400e">(deploy only) </text>
</g>
<!-- wrangler_cfg&#45;&gt;_sink -->
<!-- legend -->
<g id="node23" class="node">
<title>legend</title>
<path fill="#f9f9f9" stroke="transparent" d="M1953.44,-334.57C1953.44,-334.57 2400.44,-334.57 2400.44,-334.57 2406.44,-334.57 2412.44,-340.57 2412.44,-346.57 2412.44,-346.57 2412.44,-422.57 2412.44,-422.57 2412.44,-428.57 2406.44,-434.57 2400.44,-434.57 2400.44,-434.57 1953.44,-434.57 1953.44,-434.57 1947.44,-434.57 1941.44,-428.57 1941.44,-422.57 1941.44,-422.57 1941.44,-346.57 1941.44,-346.57 1941.44,-340.57 1947.44,-334.57 1953.44,-334.57"/>
<text text-anchor="start" x="2161.44" y="-420.37" font-family="Helvetica,Arial,sans-serif" font-weight="bold" font-size="9.00" fill="#333333">Legend</text>
<polygon fill="#ffffff" stroke="transparent" points="1945.94,-361.57 1945.94,-409.57 2035.94,-409.57 2035.94,-361.57 1945.94,-361.57"/>
<polygon fill="none" stroke="#444466" stroke-width="2" points="1946.94,-362.57 1946.94,-408.57 2034.94,-408.57 2034.94,-362.57 1946.94,-362.57"/>
<text text-anchor="start" x="1967.94" y="-387.97" font-family="Helvetica,Arial,sans-serif" font-size="7.00" fill="#111111">External Entity</text>
<text text-anchor="start" x="1967.44" y="-379.97" font-family="Helvetica,Arial,sans-serif" font-size="7.00" fill="#111111">(double border)</text>
<polygon fill="#dbeafe" stroke="transparent" stroke-width="2" points="2038.94,-361.57 2038.94,-409.57 2128.94,-409.57 2128.94,-361.57 2038.94,-361.57"/>
<polygon fill="none" stroke="#1d4ed8" stroke-width="2" points="2039.94,-362.57 2039.94,-408.57 2127.94,-408.57 2127.94,-362.57 2039.94,-362.57"/>
<text text-anchor="start" x="2070.94" y="-387.97" font-family="Helvetica,Arial,sans-serif" font-size="7.00" fill="#111111">Process</text>
<text text-anchor="start" x="2071.44" y="-379.97" font-family="Helvetica,Arial,sans-serif" font-size="7.00" fill="#111111">(ellipse)</text>
<polygon fill="#ede9fe" stroke="transparent" stroke-width="2" points="2131.94,-361.57 2131.94,-409.57 2221.94,-409.57 2221.94,-361.57 2131.94,-361.57"/>
<polygon fill="none" stroke="#5b21b6" stroke-width="2" points="2132.94,-362.57 2132.94,-408.57 2220.94,-408.57 2220.94,-362.57 2132.94,-362.57"/>
<text text-anchor="start" x="2159.94" y="-387.97" font-family="Helvetica,Arial,sans-serif" font-size="7.00" fill="#111111">Data Store</text>
<text text-anchor="start" x="2162.44" y="-379.97" font-family="Helvetica,Arial,sans-serif" font-size="7.00" fill="#111111">(cylinder)</text>
<text text-anchor="start" x="2228.94" y="-399.97" font-family="Helvetica,Arial,sans-serif" font-size="7.00" fill="#cc2222">── Untrusted boundary crossing</text>
<text text-anchor="start" x="2235.94" y="-391.97" font-family="Helvetica,Arial,sans-serif" font-size="7.00" fill="#cc6600">── Partially&#45;trusted crossing</text>
<text text-anchor="start" x="2242.94" y="-383.97" font-family="Helvetica,Arial,sans-serif" font-size="7.00" fill="#166534">── Trusted internal flow</text>
<text text-anchor="start" x="2240.94" y="-375.97" font-family="Helvetica,Arial,sans-serif" font-size="7.00" fill="#1e40af">&#45; &#45; Response / output flow</text>
<text text-anchor="start" x="2231.44" y="-367.97" font-family="Helvetica,Arial,sans-serif" font-size="7.00" fill="#92400e">&#45; &#45; Secrets / config (deploy&#45;time)</text>
<polygon fill="#fff5f5" stroke="transparent" stroke-width="2" points="1945.94,-338.57 1945.94,-358.57 2035.94,-358.57 2035.94,-338.57 1945.94,-338.57"/>
<polygon fill="none" stroke="#cc2222" stroke-width="2" points="1946.94,-339.57 1946.94,-357.57 2034.94,-357.57 2034.94,-339.57 1946.94,-339.57"/>
<text text-anchor="start" x="1954.44" y="-346.97" font-family="Helvetica,Arial,sans-serif" font-size="7.00" fill="#cc2222">TB&#45;1 Untrusted Internet</text>
<polygon fill="#f5fff5" stroke="transparent" stroke-width="2" points="2038.94,-338.57 2038.94,-358.57 2128.94,-358.57 2128.94,-338.57 2038.94,-338.57"/>
<polygon fill="none" stroke="#1a6e1a" stroke-width="2" points="2039.94,-339.57 2039.94,-357.57 2127.94,-357.57 2127.94,-339.57 2039.94,-339.57"/>
<text text-anchor="start" x="2051.94" y="-346.97" font-family="Helvetica,Arial,sans-serif" font-size="7.00" fill="#1a6e1a">TB&#45;2 CI/CD Pipeline</text>
<polygon fill="#eef3ff" stroke="transparent" stroke-width="2" points="2131.94,-338.57 2131.94,-358.57 2221.94,-358.57 2221.94,-338.57 2131.94,-338.57"/>
<polygon fill="none" stroke="#1a3acc" stroke-width="2" points="2132.94,-339.57 2132.94,-357.57 2220.94,-357.57 2220.94,-339.57 2132.94,-339.57"/>
<text text-anchor="start" x="2143.44" y="-346.97" font-family="Helvetica,Arial,sans-serif" font-size="7.00" fill="#1a3acc">TB&#45;3 Cloudflare Edge</text>
<polygon fill="#f0fffd" stroke="transparent" stroke-width="2" points="2224.94,-338.57 2224.94,-358.57 2324.94,-358.57 2324.94,-338.57 2224.94,-338.57"/>
<polygon fill="none" stroke="#0e6b5a" stroke-width="2" points="2225.94,-339.57 2225.94,-357.57 2323.94,-357.57 2323.94,-339.57 2225.94,-339.57"/>
<text text-anchor="start" x="2230.94" y="-346.97" font-family="Helvetica,Arial,sans-serif" font-size="7.00" fill="#0e6b5a">TB&#45;4 Developer Workstation</text>
<polygon fill="#fffbf0" stroke="transparent" stroke-width="2" points="2327.94,-338.57 2327.94,-358.57 2408.94,-358.57 2408.94,-338.57 2327.94,-338.57"/>
<polygon fill="none" stroke="#996600" stroke-width="2" points="2328.94,-339.57 2328.94,-357.57 2407.94,-357.57 2407.94,-339.57 2328.94,-339.57"/>
<text text-anchor="start" x="2333.94" y="-346.97" font-family="Helvetica,Arial,sans-serif" font-size="7.00" fill="#996600">TB&#45;5 Secrets / Config</text>
<path fill="none" stroke="#bbbbbb" d="M1953.44,-334.57C1953.44,-334.57 2400.44,-334.57 2400.44,-334.57 2406.44,-334.57 2412.44,-340.57 2412.44,-346.57 2412.44,-346.57 2412.44,-422.57 2412.44,-422.57 2412.44,-428.57 2406.44,-434.57 2400.44,-434.57 2400.44,-434.57 1953.44,-434.57 1953.44,-434.57 1947.44,-434.57 1941.44,-428.57 1941.44,-422.57 1941.44,-422.57 1941.44,-346.57 1941.44,-346.57 1941.44,-340.57 1947.44,-334.57 1953.44,-334.57"/>
</g>
<!-- _sink&#45;&gt;legend -->
</g>
</svg>
